<svg id="Layer_1" enable-background="new 0 0 50 50" viewBox="0 0 50 50" xmlns="http://www.w3.org/2000/svg"><g><path d="m44.2 10.5-.5 3 5.2-.8z" fill="#000000" style="fill: rgb(255, 255, 255);"></path><path d="m6.7 14.9-4.3 2.2 12 4.4z" fill="#000000" style="fill: rgb(255, 255, 255);"></path><path d="m18 21.9 1.8-17.3-18.7 2.9z" fill="#000000" style="fill: rgb(255, 255, 255);"></path><path d="m21 35.4 15.1-6.8-16.1-3.1z" fill="#000000" style="fill: rgb(255, 255, 255);"></path><path d="m39.7 24.5 2.6-14.9-9.3 6z" fill="#000000" style="fill: rgb(255, 255, 255);"></path><path d="m21.8 4.2-2 19.2 19.5 3.8-8-10.5z" fill="#000000" style="fill: rgb(255, 255, 255);"></path><path d="m13.5 45.5c.1-.1.1-.1 0 0z" fill="#000000" style="fill: rgb(255, 255, 255);"></path><path d="m13.6 45.5v.1.1l5.7-7.9-.9-9.2c-3.5 12.2-4.6 15.9-4.8 16.9z" fill="#000000" style="fill: rgb(255, 255, 255);"></path></g></svg>